<?xml version="1.0" encoding="iso-8859-1"?>
<!-- Generator: Adobe Illustrator 19.0.0, SVG Export Plug-In . SVG Version: 6.00 Build 0)  -->
<svg version="1.1" id="Layer_1" xmlns="http://www.w3.org/2000/svg" xmlns:xlink="http://www.w3.org/1999/xlink" x="0px" y="0px"
	 viewBox="0 0 512 512" style="enable-background:new 0 0 512 512;" xml:space="preserve">
<circle style="fill:#34495E;" cx="256" cy="256" r="256"/>
<path style="fill:#203549;" d="M511.411,272.643c-6.546,101.742-72.451,187.244-163.476,222.277L183.181,330.166V181.798h237.386
	L511.411,272.643z"/>
<rect x="183.19" y="181.82" style="fill:#F2F9FF;" width="237.38" height="148.37"/>
<polygon style="fill:#0684BA;" points="183.186,189.987 192.091,181.816 183.186,181.816 "/>
<polygon style="fill:#FF8E31;" points="193.6,202.895 193.6,192.228 205.228,192.228 216.577,181.816 204.335,181.816 
	183.186,201.219 183.186,212.448 "/>
<g>
	<polygon style="fill:#0684BA;" points="217.502,192.228 229.731,192.228 241.078,181.816 228.85,181.816 	"/>
	<polygon style="fill:#0684BA;" points="193.6,225.379 193.6,214.157 183.186,223.711 183.186,234.934 	"/>
</g>
<g>
	<polygon style="fill:#FF8E31;" points="241.957,192.228 254.205,192.228 265.553,181.816 253.305,181.816 	"/>
	<polygon style="fill:#FF8E31;" points="193.6,247.829 193.6,236.592 183.186,246.147 183.186,257.384 	"/>
</g>
<g>
	<polygon style="fill:#0684BA;" points="193.6,270.298 193.6,259.085 183.186,268.638 183.186,279.852 	"/>
	<polygon style="fill:#0684BA;" points="266.477,192.228 278.694,192.228 290.042,181.816 277.826,181.816 	"/>
</g>
<g>
	<polygon style="fill:#FF8E31;" points="193.6,292.788 193.6,281.539 183.186,291.093 183.186,302.341 	"/>
	<polygon style="fill:#FF8E31;" points="290.955,192.228 303.219,192.228 314.568,181.816 302.304,181.816 	"/>
</g>
<g>
	<polygon style="fill:#0684BA;" points="315.456,192.228 327.681,192.228 339.029,181.816 326.806,181.816 	"/>
	<polygon style="fill:#0684BA;" points="193.6,315.241 193.6,304.006 183.186,313.559 183.186,324.795 	"/>
</g>
<g>
	<polygon style="fill:#FF8E31;" points="339.937,192.228 352.156,192.228 363.505,181.816 351.287,181.816 	"/>
	<polygon style="fill:#FF8E31;" points="213.131,319.772 200.891,319.772 189.535,330.189 201.777,330.189 	"/>
</g>
<g>
	<polygon style="fill:#0684BA;" points="237.648,319.772 225.405,319.772 214.051,330.189 226.293,330.189 	"/>
	<polygon style="fill:#0684BA;" points="364.426,192.228 376.685,192.228 388.034,181.816 375.774,181.816 	"/>
</g>
<g>
	<polygon style="fill:#FF8E31;" points="262.12,319.772 249.885,319.772 238.529,330.189 250.764,330.189 	"/>
	<polygon style="fill:#FF8E31;" points="388.93,192.228 401.172,192.228 412.522,181.816 400.281,181.816 	"/>
</g>
<g>
	<polygon style="fill:#0684BA;" points="286.624,319.772 274.375,319.772 263.019,330.189 275.269,330.189 	"/>
	<polygon style="fill:#0684BA;" points="410.156,195.227 410.156,206.455 420.567,196.905 420.567,185.677 	"/>
</g>
<g>
	<polygon style="fill:#FF8E31;" points="311.116,319.772 298.889,319.772 287.533,330.189 299.761,330.189 	"/>
	<polygon style="fill:#FF8E31;" points="410.156,217.71 410.156,228.912 420.567,219.36 420.567,208.16 	"/>
</g>
<g>
	<polygon style="fill:#0684BA;" points="335.601,319.772 323.383,319.772 312.028,330.189 324.246,330.189 	"/>
	<polygon style="fill:#0684BA;" points="410.156,240.176 410.156,251.384 420.567,241.833 420.567,230.625 	"/>
</g>
<g>
	<polygon style="fill:#FF8E31;" points="410.156,262.617 410.156,273.863 420.567,264.314 420.567,253.067 	"/>
	<polygon style="fill:#FF8E31;" points="360.103,319.772 347.845,319.772 336.489,330.189 348.746,330.189 	"/>
</g>
<g>
	<polygon style="fill:#0684BA;" points="410.156,285.122 410.156,296.339 420.567,286.789 420.567,275.574 	"/>
	<polygon style="fill:#0684BA;" points="384.608,319.772 372.374,319.772 361.016,330.189 373.252,330.189 	"/>
</g>
<g>
	<polygon style="fill:#FF8E31;" points="409.091,319.772 396.858,319.772 385.501,330.189 397.734,330.189 	"/>
	<polygon style="fill:#FF8E31;" points="420.567,298.027 410.156,307.576 410.156,318.795 420.567,309.245 	"/>
</g>
<polygon style="fill:#0684BA;" points="420.567,320.501 410.004,330.189 420.567,330.189 "/>
<rect x="203.76" y="201.21" style="fill:#FFFFFF;" width="79.65" height="47.521"/>
<rect x="208.22" y="205.7" style="fill:#0684BA;" width="70.73" height="38.546"/>
<g>
	<rect x="326.78" y="289.27" style="fill:#B8D1E6;" width="67.5" height="2.401"/>
	<rect x="326.78" y="297.26" style="fill:#B8D1E6;" width="67.5" height="2.404"/>
	<rect x="326.78" y="305.23" style="fill:#B8D1E6;" width="33.754" height="2.424"/>
</g>
<g>
	<rect x="91.43" y="296.35" style="fill:#FFFFFF;" width="83.3" height="6.249"/>
	<rect x="133.07" y="252.88" style="fill:#FFFFFF;" width="41.649" height="6.249"/>
	<rect x="153.9" y="209.41" style="fill:#FFFFFF;" width="20.823" height="6.246"/>
</g>
<g>
</g>
<g>
</g>
<g>
</g>
<g>
</g>
<g>
</g>
<g>
</g>
<g>
</g>
<g>
</g>
<g>
</g>
<g>
</g>
<g>
</g>
<g>
</g>
<g>
</g>
<g>
</g>
<g>
</g>
</svg>
